<svg width="128" height="130" viewBox="0 0 128 130" fill="none" xmlns="http://www.w3.org/2000/svg">
<g id="Octicons-mark-github 1">
<path id="Vector" fill-rule="evenodd" clip-rule="evenodd" d="M64 0C28.64 0 0 29.0875 0 65C0 93.7625 18.32 118.056 43.76 126.669C46.96 127.238 48.16 125.288 48.16 123.581C48.16 122.038 48.08 116.919 48.08 111.475C32 114.481 27.84 107.494 26.56 103.838C25.84 101.969 22.72 96.2 20 94.6563C17.76 93.4375 14.56 90.4313 19.92 90.35C24.96 90.2688 28.56 95.0625 29.76 97.0125C35.52 106.844 44.72 104.081 48.4 102.375C48.96 98.15 50.64 95.3063 52.48 93.6813C38.24 92.0563 23.36 86.45 23.36 61.5875C23.36 54.5188 25.84 48.6688 29.92 44.1188C29.28 42.4938 27.04 35.8313 30.56 26.8938C30.56 26.8938 35.92 25.1875 48.16 33.5563C53.28 32.0938 58.72 31.3625 64.16 31.3625C69.6 31.3625 75.04 32.0938 80.16 33.5563C92.4 25.1063 97.76 26.8938 97.76 26.8938C101.28 35.8313 99.04 42.4938 98.4 44.1188C102.48 48.6688 104.96 54.4375 104.96 61.5875C104.96 86.5313 90 92.0563 75.76 93.6813C78.08 95.7125 80.08 99.6125 80.08 105.706C80.08 114.4 80 121.388 80 123.581C80 125.288 81.2 127.319 84.4 126.669C109.68 118.056 128 93.6813 128 65C128 29.0875 99.36 0 64 0Z" fill="#1B1F23"/>
</g>
</svg>
