<svg width="104" height="96" viewBox="0 0 104 96" fill="none" xmlns="http://www.w3.org/2000/svg">
<g clip-path="url(#clip0_32_107)">
<rect width="104" height="96" fill="#F1F4C6"/>
<path d="M54.4863 35.7031H49.1689C46.9131 35.7031 45.2871 35.1318 44.291 33.9893C43.2949 32.8174 42.7969 31.2793 42.7969 29.375C42.7969 25.1562 45.9463 23.0469 52.2451 23.0469C58.1631 23.0469 62.6162 23.9258 65.6045 25.6836L63.0557 27.6172C61.0049 26.6797 57.4014 26.2109 52.2451 26.2109C49.7256 26.2109 48.0264 26.4893 47.1475 27.0459C46.2979 27.6025 45.873 28.3789 45.873 29.375C45.873 30.3711 46.1074 31.1475 46.5762 31.7041C47.0449 32.2607 47.9092 32.5391 49.1689 32.5391H54.6182C58.5732 32.5391 62.1328 33.2129 65.2969 34.5605C68.4902 35.9082 71.1123 37.7539 73.1631 40.0977C75.2139 42.4121 76.7812 45.0928 77.8652 48.1396C78.9492 51.1572 79.4912 54.3945 79.4912 57.8516C79.4912 60.6641 79.0957 63.3301 78.3047 65.8496C77.5137 68.3691 76.3125 70.6836 74.7012 72.793C73.1191 74.9023 71.2002 76.7334 68.9443 78.2861C66.7178 79.8096 64.0518 80.9961 60.9463 81.8457C57.8701 82.7246 54.5303 83.1641 50.9268 83.1641C45.2725 83.1641 39.9697 82.2998 35.0186 80.5713C30.0967 78.8721 25.9951 76.4844 22.7139 73.4082L25.2627 71.5186C28.251 74.2139 31.9863 76.3086 36.4688 77.8027C40.9805 79.2676 45.7998 80 50.9268 80C54.9404 80 58.5586 79.4287 61.7812 78.2861C65.0332 77.1143 67.6992 75.5176 69.7793 73.4961C71.8887 71.4746 73.5 69.1309 74.6133 66.4648C75.7559 63.7988 76.3271 60.9277 76.3271 57.8516C76.3271 53.7793 75.5068 50.1025 73.8662 46.8213C72.2256 43.5107 69.7207 40.8301 66.3516 38.7793C63.0117 36.7285 59.0566 35.7031 54.4863 35.7031ZM49.1689 38.8672H54.1787C60.126 38.8672 64.7695 40.6836 68.1094 44.3164C71.4785 47.9492 73.1631 52.4609 73.1631 57.8516C73.1631 63.3301 71.2148 67.8711 67.3184 71.4746C63.4219 75.0488 57.958 76.8359 50.9268 76.8359C46.2393 76.8359 41.8594 76.1914 37.7871 74.9023C33.7148 73.6133 30.3311 71.7969 27.6357 69.4531L30.0967 67.4756C32.499 69.4385 35.5166 70.9619 39.1494 72.0459C42.8115 73.1299 46.7373 73.6719 50.9268 73.6719C57.1084 73.6719 61.8252 72.1924 65.0771 69.2334C68.3584 66.2744 69.999 62.4805 69.999 57.8516C69.999 53.2812 68.6221 49.502 65.8682 46.5137C63.1436 43.5254 59.2324 42.0312 54.1348 42.0312H49.1689C44.8916 42.0312 41.6836 40.8594 39.5449 38.5156C37.4062 36.1719 36.3369 33.125 36.3369 29.375C36.3369 25.625 37.6553 22.5781 40.292 20.2344C42.958 17.8906 46.9424 16.7188 52.2451 16.7188C55.9658 16.7188 59.4229 17.1582 62.6162 18.0371C65.8096 18.8867 68.4463 20.1172 70.5264 21.7285L68.0215 23.6621C64.3594 21.1426 59.1006 19.8828 52.2451 19.8828C47.8213 19.8828 44.584 20.7617 42.5332 22.5195C40.5117 24.248 39.501 26.5332 39.501 29.375C39.501 32.2461 40.248 34.5459 41.7422 36.2744C43.2656 38.0029 45.7412 38.8672 49.1689 38.8672ZM49.1689 45.1953H54.0029C58.2803 45.1953 61.4883 46.3818 63.627 48.7549C65.7656 51.1279 66.835 54.1602 66.835 57.8516C66.835 61.6016 65.502 64.6484 62.8359 66.9922C60.1992 69.3359 56.2295 70.5078 50.9268 70.5078C47.2061 70.5078 43.7344 70.083 40.5117 69.2334C37.3184 68.3545 34.6816 67.1094 32.6016 65.498L35.1064 63.5645C38.7686 66.084 44.042 67.3438 50.9268 67.3438C55.3506 67.3438 58.5732 66.4795 60.5947 64.751C62.6455 62.9932 63.6709 60.6934 63.6709 57.8516C63.6709 55.0098 62.9092 52.7246 61.3857 50.9961C59.8623 49.2383 57.3867 48.3594 53.959 48.3594H49.1689C43.1631 48.3594 38.4609 46.5723 35.0625 42.998C31.6934 39.3945 30.0088 34.8535 30.0088 29.375C30.0088 23.8965 31.957 19.3701 35.8535 15.7959C39.75 12.1924 45.2139 10.3906 52.2451 10.3906C56.9326 10.3906 61.2979 11.0352 65.3408 12.3242C69.4131 13.6133 72.7969 15.4297 75.4922 17.7734L73.0312 19.751C70.6289 17.7881 67.6113 16.2646 63.9785 15.1807C60.3457 14.0967 56.4346 13.5547 52.2451 13.5547C46.0635 13.5547 41.332 15.0342 38.0508 17.9932C34.7988 20.9521 33.1729 24.7461 33.1729 29.375C33.1729 33.9746 34.5498 37.7686 37.3037 40.7568C40.0576 43.7158 44.0127 45.1953 49.1689 45.1953ZM49.1689 51.5234H54.0029C56.2588 51.5234 57.8848 52.1094 58.8809 53.2812C59.877 54.4531 60.375 55.9766 60.375 57.8516C60.375 62.0703 57.2256 64.1797 50.9268 64.1797C44.9795 64.1797 40.5117 63.3008 37.5234 61.543L40.0723 59.6094C42.123 60.5469 45.7412 61.0156 50.9268 61.0156C53.4463 61.0156 55.1309 60.7373 55.9805 60.1807C56.8594 59.624 57.2988 58.8477 57.2988 57.8516C57.2988 56.8848 57.0498 56.123 56.5518 55.5664C56.083 54.9805 55.2041 54.6875 53.915 54.6875H49.1689C45.126 54.6875 41.4639 54.0283 38.1826 52.71C34.9307 51.3916 32.25 49.5752 30.1406 47.2607C28.0605 44.9463 26.4639 42.2656 25.3506 39.2188C24.2373 36.1719 23.6807 32.8906 23.6807 29.375C23.6807 26.5625 24.0762 23.8965 24.8672 21.377C25.6582 18.8574 26.8447 16.543 28.4268 14.4336C30.0381 12.3242 31.957 10.5078 34.1836 8.98438C36.4395 7.43164 39.1055 6.23047 42.1816 5.38086C45.2871 4.50195 48.6416 4.0625 52.2451 4.0625C57.8994 4.0625 63.1875 4.92676 68.1094 6.65527C73.0312 8.35449 77.1328 10.7422 80.4141 13.8184L77.8652 15.708C74.877 13.0127 71.1416 10.9326 66.6592 9.46777C62.1768 7.97363 57.3721 7.22656 52.2451 7.22656C48.2314 7.22656 44.5986 7.8125 41.3467 8.98438C38.124 10.127 35.458 11.709 33.3486 13.7305C31.2686 15.752 29.6572 18.0957 28.5146 20.7617C27.4014 23.4277 26.8447 26.2988 26.8447 29.375C26.8447 33.5059 27.6797 37.2266 29.3496 40.5371C31.0195 43.8477 33.5684 46.5137 36.9961 48.5352C40.4238 50.5273 44.4814 51.5234 49.1689 51.5234Z" fill="#837D7D"/>
</g>
<defs>
<clipPath id="clip0_32_107">
<rect width="104" height="96" fill="white"/>
</clipPath>
</defs>
</svg>
